<svg width="32" height="33" viewBox="0 0 32 33" fill="none" xmlns="http://www.w3.org/2000/svg">
<path d="M30.6617 28.5C31.0428 28.5 31.3611 28.3706 31.6167 28.1117C31.8722 27.8539 32 27.5344 32 27.1533V19.07C32 18.6878 31.8706 18.3689 31.6117 18.1133C31.3539 17.8578 31.0344 17.73 30.6533 17.73H22.57C22.1878 17.73 21.8689 17.8594 21.6133 18.1183C21.3578 18.3761 21.23 18.6961 21.23 19.0783V27.1617C21.23 27.5439 21.3594 27.8622 21.6183 28.1167C21.8761 28.3722 22.1961 28.5 22.5783 28.5H30.6617ZM13.805 11H22.76C23.2711 11 23.6544 10.7689 23.91 10.3067C24.1644 9.84334 24.1572 9.38778 23.8883 8.94L19.4417 1.60334C19.1683 1.17556 18.7806 0.96167 18.2783 0.96167C17.7761 0.96167 17.3906 1.17556 17.1217 1.60334L12.6767 8.94C12.4067 9.38778 12.3994 9.84334 12.655 10.3067C12.9106 10.77 13.2939 11.0011 13.805 11ZM1.56667 31.8L5.33 28.0383C5.84889 28.4494 6.42722 28.7678 7.065 28.9933C7.70278 29.22 8.38611 29.3333 9.115 29.3333C10.8561 29.3333 12.3283 28.7322 13.5317 27.53C14.735 26.3278 15.3356 24.8567 15.3333 23.1167C15.3311 21.3767 14.73 19.905 13.53 18.7017C12.33 17.4983 10.8583 16.8972 9.115 16.8983C7.37167 16.8994 5.9 17.5006 4.7 18.7017C3.5 19.9028 2.89889 21.375 2.89667 23.1183C2.89667 23.8406 3.01 24.515 3.23667 25.1417C3.46334 25.7683 3.76778 26.3411 4.15 26.86L0.388336 30.6233C0.23278 30.7789 0.149445 30.97 0.138332 31.1967C0.127222 31.4233 0.210558 31.6256 0.388336 31.8033C0.566113 31.9811 0.762222 32.07 0.976667 32.07C1.19111 32.07 1.38778 31.9811 1.56667 31.8033M9.11667 27.6667C7.84222 27.6667 6.76444 27.2267 5.88333 26.3467C5.00222 25.4667 4.56222 24.39 4.56333 23.1167C4.56445 21.8433 5.00444 20.7656 5.88333 19.8833C6.76222 19.0011 7.83944 18.5611 9.115 18.5633C10.3906 18.5656 11.4678 19.0056 12.3467 19.8833C13.2256 20.7611 13.6656 21.8389 13.6667 23.1167C13.6678 24.3944 13.2278 25.4717 12.3467 26.3483C11.4656 27.225 10.3889 27.6644 9.11667 27.6667Z" fill="black"/>
</svg>
