<svg width="20" height="19" viewBox="0 0 20 19" fill="none" xmlns="http://www.w3.org/2000/svg">
<path d="M10.28 16.604C10.984 16.554 11.6787 16.4417 12.364 16.267C13.2073 16.5198 14.0972 16.5772 14.966 16.435C15.0005 16.4305 15.0352 16.4279 15.07 16.427C15.38 16.427 15.787 16.605 16.38 16.98V16.364C16.3801 16.2567 16.4091 16.1514 16.4638 16.059C16.5185 15.9667 16.5969 15.8907 16.691 15.839C16.949 15.696 17.189 15.529 17.408 15.347C18.272 14.624 18.76 13.661 18.76 12.641C18.7597 12.3037 18.706 11.9686 18.601 11.648C18.861 11.168 19.073 10.662 19.228 10.138C19.728 10.878 19.998 11.748 20 12.641C20 14.027 19.346 15.321 18.215 16.266C18.0258 16.4234 17.8271 16.569 17.62 16.702V18.144C17.62 18.64 17.04 18.924 16.631 18.63C16.2441 18.3442 15.8436 18.0773 15.431 17.83C15.3124 17.7603 15.1891 17.6988 15.062 17.646C14.722 17.6967 14.376 17.7223 14.024 17.723C12.612 17.723 11.307 17.305 10.28 16.604ZM2.814 13.718C1.03 12.228 0 10.192 0 8.014C0 3.56 4.258 0 9.457 0C14.656 0 18.915 3.56 18.915 8.014C18.915 12.468 14.656 16.027 9.457 16.027C8.87233 16.027 8.29633 15.9827 7.729 15.894C7.484 15.951 6.505 16.525 5.094 17.542C4.584 17.911 3.858 17.555 3.858 16.934V14.474C3.49244 14.2479 3.14355 13.9959 2.814 13.72M7.764 14.378C7.806 14.378 7.84933 14.3813 7.894 14.388C8.41058 14.4737 8.93336 14.5165 9.457 14.516C13.849 14.516 17.364 11.577 17.364 8.014C17.364 4.451 13.849 1.513 9.457 1.513C5.067 1.513 1.55 4.452 1.55 8.014C1.55 9.737 2.371 11.359 3.823 12.573C4.18967 12.8783 4.58833 13.152 5.019 13.394C5.26 13.529 5.409 13.779 5.409 14.049V15.468C6.525 14.728 7.259 14.378 7.763 14.378" fill="black"/>
</svg>
