<svg width="28" height="28" viewBox="0 0 28 28" fill="none" xmlns="http://www.w3.org/2000/svg">
<path fill-rule="evenodd" clip-rule="evenodd" d="M2.85775 4.89298C4.19125 3.42823 6.09525 2.62323 8.33 2.62323C10.367 2.62323 12.5422 3.58573 14 5.46873C15.449 3.58748 17.6155 2.62323 19.67 2.62323C21.8995 2.62323 23.8 3.42473 25.137 4.88598C26.46 6.33498 27.125 8.31948 27.125 10.521C27.125 14.3115 25.1772 17.3617 22.7115 19.733C20.2527 22.099 17.164 23.9032 14.6038 25.228C14.4162 25.325 14.2081 25.3753 13.9969 25.3747C13.7858 25.3741 13.578 25.3226 13.391 25.2245C10.8307 23.8857 7.742 22.0955 5.28325 19.7417C2.8175 17.3775 0.875 14.3377 0.875 10.5227C0.875 8.32648 1.5365 6.34198 2.85775 4.89298ZM4.7985 6.66048C4.00225 7.53548 3.5 8.84273 3.5 10.5227C3.5 13.3647 4.928 15.7657 7.09975 17.8447C9.10525 19.7662 11.6497 21.3185 14.0035 22.5785C16.3397 21.336 18.886 19.7715 20.8933 17.8412C23.0685 15.7465 24.5 13.335 24.5 10.5227C24.5 8.83748 23.996 7.53023 23.198 6.65523C22.414 5.79948 21.245 5.24998 19.67 5.24998C17.962 5.24998 16.0073 6.34898 15.2478 8.66248C15.1619 8.92571 14.9949 9.15503 14.7708 9.31764C14.5467 9.48025 14.2769 9.56782 14 9.56782C13.7231 9.56782 13.4533 9.48025 13.2292 9.31764C13.0051 9.15503 12.8381 8.92571 12.7523 8.66248C11.9945 6.35248 10.0188 5.24998 8.33 5.24998C6.74975 5.24998 5.5825 5.79948 4.7985 6.66048Z" fill="black"/>
</svg>
