<svg width="27" height="23" viewBox="0 0 27 23" fill="none" xmlns="http://www.w3.org/2000/svg">
<path fill-rule="evenodd" clip-rule="evenodd" d="M8.0325 0.531229C5.87588 0.531229 4.04156 1.30579 2.75569 2.71823C1.48163 4.11548 0.84375 6.0291 0.84375 8.14692C0.84375 11.8257 2.71688 14.7569 5.09625 17.0367C7.4655 19.3064 10.4456 21.0327 12.9127 22.3236C13.093 22.4182 13.2935 22.4679 13.4971 22.4685C13.7006 22.469 13.9014 22.4205 14.0822 22.327C16.551 21.0495 19.5294 19.3097 21.9004 17.0282C24.2797 14.7417 26.1562 11.8004 26.1562 8.14692C26.1562 6.02067 25.515 4.10873 24.2393 2.71148C22.9517 1.30242 21.1174 0.529541 18.9675 0.529541C17.1517 0.529541 15.6499 1.20285 14.5074 2.47185C14.117 2.9116 13.7789 3.39521 13.5 3.91298C13.2211 3.39521 12.883 2.9116 12.4926 2.47185C11.3501 1.20285 9.84825 0.531229 8.0325 0.531229Z" fill="black"/>
</svg>
