<svg width="25" height="24" viewBox="0 0 25 24" fill="none" xmlns="http://www.w3.org/2000/svg">
<path d="M10.7143 10.8V7.2L16.6667 12L10.7143 16.8V13.2H0V10.8H10.7143ZM1.73571 15.6H4.26429C5.09529 17.6629 6.61156 19.3706 8.55371 20.4311C10.4959 21.4916 12.7432 21.8389 14.9114 21.4137C17.0795 20.9884 19.0337 19.8171 20.4397 18.0999C21.8456 16.3827 22.616 14.2265 22.619 12C22.6203 9.77119 21.8521 7.6114 20.4463 5.89107C19.0405 4.17073 17.0847 2.99707 14.9142 2.57138C12.7438 2.14568 10.4941 2.49449 8.55093 3.55797C6.60775 4.62146 5.09222 6.33334 4.26429 8.4H1.73571C3.25238 3.5316 7.76429 0 13.0952 0C19.6702 0 25 5.3724 25 12C25 18.6276 19.6702 24 13.0952 24C7.76429 24 3.25238 20.4684 1.73571 15.6Z" fill="black"/>
</svg>
