<svg width="26" height="23" viewBox="0 0 26 23" fill="none" xmlns="http://www.w3.org/2000/svg">
<path d="M11.8182 23C5.291 23 0 17.8514 0 11.5C0 5.14855 5.291 1.43956e-06 11.8182 1.43956e-06C13.6531 -0.000892304 15.4629 0.414384 17.1041 1.21287C18.7452 2.01136 20.1725 3.17108 21.2727 4.6H18.07C16.7053 3.42902 15.0223 2.66611 13.223 2.40281C11.4238 2.13951 9.58462 2.387 7.92632 3.1156C6.26802 3.84419 4.86099 5.02293 3.87408 6.51037C2.88717 7.99781 2.3623 9.73076 2.36245 11.5013C2.3626 13.2718 2.88777 15.0047 3.87494 16.4919C4.8621 17.9792 6.26933 19.1577 7.92776 19.886C9.58618 20.6144 11.4254 20.8616 13.2246 20.598C15.0238 20.3344 16.7067 19.5712 18.0712 18.4H21.2739C20.1736 19.8291 18.7461 20.9889 17.1047 21.7874C15.4633 22.5859 13.6533 23.0011 11.8182 23ZM20.0909 16.1V12.65H10.6364V10.35H20.0909V6.9L26 11.5L20.0909 16.1Z" fill="black"/>
</svg>
