<svg width="52" height="52" viewBox="0 0 52 52" fill="none" xmlns="http://www.w3.org/2000/svg">
<path d="M20.1717 14.5383C19.9708 14.7388 19.8115 14.9769 19.7027 15.239C19.594 15.5011 19.538 15.7821 19.538 16.0658C19.538 16.3496 19.594 16.6306 19.7027 16.8927C19.8115 17.1548 19.9708 17.3929 20.1717 17.5933L28.5783 26L20.1717 34.4067C19.7666 34.8118 19.539 35.3612 19.539 35.9342C19.539 36.5071 19.7666 37.0566 20.1717 37.4617C20.5768 37.8668 21.1262 38.0944 21.6992 38.0944C22.2721 38.0944 22.8216 37.8668 23.2267 37.4617L33.1717 27.5167C33.3725 27.3162 33.5319 27.0781 33.6406 26.816C33.7493 26.5539 33.8053 26.2729 33.8053 25.9892C33.8053 25.7054 33.7493 25.4244 33.6406 25.1623C33.5319 24.9002 33.3725 24.6621 33.1717 24.4617L23.2267 14.5167C22.4033 13.6933 21.0167 13.6933 20.1717 14.5383Z" fill="white"/>
</svg>
