<svg width="18" height="30" viewBox="0 0 18 30" fill="none" xmlns="http://www.w3.org/2000/svg">
<path d="M0.799406 0.789275C0.545998 1.03784 0.344953 1.33309 0.20778 1.65811C0.0706077 1.98314 0 2.33157 0 2.68345C0 3.03534 0.0706077 3.38377 0.20778 3.70879C0.344953 4.03382 0.545998 4.32907 0.799406 4.57763L11.4055 15.0023L0.799406 25.427C0.288296 25.9294 0.00115746 26.6108 0.00115746 27.3212C0.00115746 28.0317 0.288296 28.713 0.799406 29.2154C1.31051 29.7178 2.00373 30 2.72655 30C3.44936 30 4.14258 29.7178 4.65369 29.2154L17.2006 16.8831C17.454 16.6345 17.6551 16.3393 17.7922 16.0142C17.9294 15.6892 18 15.3408 18 14.9889C18 14.637 17.9294 14.2886 17.7922 13.9636C17.6551 13.6385 17.454 13.3433 17.2006 13.0947L4.65369 0.762406C3.61494 -0.25857 1.86548 -0.25857 0.799406 0.789275Z" fill="white"/>
</svg>
