<svg width="220" height="220" viewBox="0 0 220 220" fill="none" xmlns="http://www.w3.org/2000/svg">
<rect x="0.5" y="0.5" width="219" height="219" rx="99.5" fill="#F1C6B8" stroke="#F1C6B8"/>
<mask id="path-2-outside-1_98_576" maskUnits="userSpaceOnUse" x="73" y="61" width="69" height="102" fill="black">
<rect fill="white" x="73" y="61" width="69" height="102"/>
<path d="M101.36 161.304C95.984 161.304 91.248 160.365 87.152 158.488C83.056 156.611 79.8987 154.008 77.68 150.68C75.4613 147.267 74.352 143.341 74.352 138.904C74.352 135.149 75.12 131.736 76.656 128.664C78.2773 125.592 80.4107 123.16 83.056 121.368C85.7867 119.576 88.7733 118.68 92.016 118.68C95.0027 118.68 97.52 119.448 99.568 120.984C101.616 122.435 102.896 124.483 103.408 127.128C98.9707 127.128 95.4293 128.323 92.784 130.712C90.1387 133.016 88.816 136.173 88.816 140.184C88.816 143.853 89.9253 146.797 92.144 149.016C94.3627 151.235 97.3067 152.344 100.976 152.344C105.499 152.344 109.211 150.851 112.112 147.864C115.099 144.792 116.592 140.952 116.592 136.344C116.592 132.333 115.483 128.536 113.264 124.952C111.045 121.368 107.717 117.016 103.28 111.896C98.672 106.605 95.1733 102.083 92.784 98.328C90.48 94.488 89.328 90.3067 89.328 85.784C89.328 81.3467 90.5653 77.3787 93.04 73.88C95.5147 70.296 98.928 67.48 103.28 65.432C107.632 63.384 112.539 62.36 118 62.36C124.912 62.36 130.416 63.9813 134.512 67.224C138.693 70.4667 140.784 74.8187 140.784 80.28C140.784 83.864 139.888 86.7653 138.096 88.984C136.304 91.2027 133.957 92.312 131.056 92.312C127.813 92.312 125.211 90.9893 123.248 88.344C124.869 87.1493 126.149 85.5707 127.088 83.608C128.027 81.6453 128.496 79.5973 128.496 77.464C128.496 74.7333 127.685 72.5573 126.064 70.936C124.443 69.3147 122.224 68.504 119.408 68.504C115.995 68.504 113.179 69.7413 110.96 72.216C108.827 74.6053 107.76 77.6773 107.76 81.432C107.76 84.8453 108.741 88.0453 110.704 91.032C112.667 93.9333 115.739 97.688 119.92 102.296C123.333 105.965 126.064 109.123 128.112 111.768C130.245 114.413 132.037 117.485 133.488 120.984C135.024 124.397 135.792 128.109 135.792 132.12C135.792 137.581 134.256 142.531 131.184 146.968C128.197 151.405 124.059 154.904 118.768 157.464C113.563 160.024 107.76 161.304 101.36 161.304Z"/>
</mask>
<path d="M101.36 161.304C95.984 161.304 91.248 160.365 87.152 158.488C83.056 156.611 79.8987 154.008 77.68 150.68C75.4613 147.267 74.352 143.341 74.352 138.904C74.352 135.149 75.12 131.736 76.656 128.664C78.2773 125.592 80.4107 123.16 83.056 121.368C85.7867 119.576 88.7733 118.68 92.016 118.68C95.0027 118.68 97.52 119.448 99.568 120.984C101.616 122.435 102.896 124.483 103.408 127.128C98.9707 127.128 95.4293 128.323 92.784 130.712C90.1387 133.016 88.816 136.173 88.816 140.184C88.816 143.853 89.9253 146.797 92.144 149.016C94.3627 151.235 97.3067 152.344 100.976 152.344C105.499 152.344 109.211 150.851 112.112 147.864C115.099 144.792 116.592 140.952 116.592 136.344C116.592 132.333 115.483 128.536 113.264 124.952C111.045 121.368 107.717 117.016 103.28 111.896C98.672 106.605 95.1733 102.083 92.784 98.328C90.48 94.488 89.328 90.3067 89.328 85.784C89.328 81.3467 90.5653 77.3787 93.04 73.88C95.5147 70.296 98.928 67.48 103.28 65.432C107.632 63.384 112.539 62.36 118 62.36C124.912 62.36 130.416 63.9813 134.512 67.224C138.693 70.4667 140.784 74.8187 140.784 80.28C140.784 83.864 139.888 86.7653 138.096 88.984C136.304 91.2027 133.957 92.312 131.056 92.312C127.813 92.312 125.211 90.9893 123.248 88.344C124.869 87.1493 126.149 85.5707 127.088 83.608C128.027 81.6453 128.496 79.5973 128.496 77.464C128.496 74.7333 127.685 72.5573 126.064 70.936C124.443 69.3147 122.224 68.504 119.408 68.504C115.995 68.504 113.179 69.7413 110.96 72.216C108.827 74.6053 107.76 77.6773 107.76 81.432C107.76 84.8453 108.741 88.0453 110.704 91.032C112.667 93.9333 115.739 97.688 119.92 102.296C123.333 105.965 126.064 109.123 128.112 111.768C130.245 114.413 132.037 117.485 133.488 120.984C135.024 124.397 135.792 128.109 135.792 132.12C135.792 137.581 134.256 142.531 131.184 146.968C128.197 151.405 124.059 154.904 118.768 157.464C113.563 160.024 107.76 161.304 101.36 161.304Z" fill="#CE4E6A"/>
<path d="M87.152 158.488L86.7353 159.397L86.7353 159.397L87.152 158.488ZM77.68 150.68L76.8415 151.225L76.8479 151.235L77.68 150.68ZM76.656 128.664L75.7716 128.197L75.7665 128.207L75.7616 128.217L76.656 128.664ZM83.056 121.368L82.5073 120.532L82.5012 120.536L82.4952 120.54L83.056 121.368ZM99.568 120.984L98.968 121.784L98.9789 121.792L98.99 121.8L99.568 120.984ZM103.408 127.128V128.128H104.62L104.39 126.938L103.408 127.128ZM92.784 130.712L93.4408 131.466L93.4476 131.46L93.4543 131.454L92.784 130.712ZM112.112 147.864L111.395 147.167L111.395 147.167L112.112 147.864ZM113.264 124.952L114.114 124.426L114.114 124.426L113.264 124.952ZM103.28 111.896L104.036 111.241L104.034 111.239L103.28 111.896ZM92.784 98.328L91.9265 98.8425L91.9333 98.8538L91.9403 98.8649L92.784 98.328ZM93.04 73.88L93.8565 74.4575L93.8629 74.4482L93.04 73.88ZM103.28 65.432L103.706 66.3368L103.706 66.3368L103.28 65.432ZM134.512 67.224L133.891 68.0081L133.899 68.0142L134.512 67.224ZM138.096 88.984L137.318 88.3557L137.318 88.3557L138.096 88.984ZM123.248 88.344L122.655 87.5389L121.847 88.1341L122.445 88.9398L123.248 88.344ZM127.088 83.608L126.186 83.1765L126.186 83.1765L127.088 83.608ZM110.96 72.216L110.215 71.5484L110.214 71.55L110.96 72.216ZM110.704 91.032L109.868 91.5812L109.876 91.5923L110.704 91.032ZM119.92 102.296L119.179 102.968L119.188 102.977L119.92 102.296ZM128.112 111.768L127.321 112.38L127.327 112.388L127.334 112.396L128.112 111.768ZM133.488 120.984L132.564 121.367L132.57 121.381L132.576 121.394L133.488 120.984ZM131.184 146.968L130.362 146.399L130.354 146.41L131.184 146.968ZM118.768 157.464L118.332 156.564L118.327 156.567L118.768 157.464ZM101.36 160.304C96.1004 160.304 91.5111 159.386 87.5687 157.579L86.7353 159.397C90.9849 161.345 95.8676 162.304 101.36 162.304V160.304ZM87.5687 157.579C83.6194 155.769 80.6152 153.28 78.5121 150.125L76.8479 151.235C79.1821 154.736 82.4926 157.452 86.7353 159.397L87.5687 157.579ZM78.5184 150.135C76.4147 146.898 75.352 143.166 75.352 138.904H73.352C73.352 143.517 74.508 147.635 76.8416 151.225L78.5184 150.135ZM75.352 138.904C75.352 135.29 76.0902 132.032 77.5504 129.111L75.7616 128.217C74.1498 131.44 73.352 135.009 73.352 138.904H75.352ZM77.5404 129.131C79.092 126.191 81.119 123.888 83.6168 122.196L82.4952 120.54C79.7024 122.432 77.4627 124.993 75.7716 128.197L77.5404 129.131ZM83.6047 122.204C86.1736 120.518 88.9698 119.68 92.016 119.68V117.68C88.5769 117.68 85.3997 118.634 82.5073 120.532L83.6047 122.204ZM92.016 119.68C94.8237 119.68 97.1208 120.399 98.968 121.784L100.168 120.184C97.9192 118.497 95.1816 117.68 92.016 117.68V119.68ZM98.99 121.8C100.811 123.09 101.959 124.905 102.426 127.318L104.39 126.938C103.833 124.06 102.421 121.779 100.146 120.168L98.99 121.8ZM103.408 126.128C98.7862 126.128 94.9849 127.377 92.1137 129.97L93.4543 131.454C95.8738 129.269 99.1552 128.128 103.408 128.128V126.128ZM92.1272 129.958C89.2314 132.48 87.816 135.93 87.816 140.184H89.816C89.816 136.416 91.046 133.552 93.4408 131.466L92.1272 129.958ZM87.816 140.184C87.816 144.07 88.999 147.285 91.4369 149.723L92.8511 148.309C90.8517 146.309 89.816 143.637 89.816 140.184H87.816ZM91.4369 149.723C93.8748 152.161 97.0899 153.344 100.976 153.344V151.344C97.5234 151.344 94.8505 150.308 92.8511 148.309L91.4369 149.723ZM100.976 153.344C105.743 153.344 109.722 151.759 112.829 148.561L111.395 147.167C108.699 149.942 105.254 151.344 100.976 151.344V153.344ZM112.829 148.561C116.012 145.287 117.592 141.191 117.592 136.344H115.592C115.592 140.713 114.186 144.297 111.395 147.167L112.829 148.561ZM117.592 136.344C117.592 132.138 116.426 128.159 114.114 124.426L112.414 125.478C114.54 128.913 115.592 132.529 115.592 136.344H117.592ZM114.114 124.426C111.856 120.778 108.49 116.38 104.036 111.241L102.524 112.551C106.945 117.652 110.235 121.958 112.414 125.478L114.114 124.426ZM104.034 111.239C99.4425 105.967 95.9795 101.487 93.6277 97.7911L91.9403 98.8649C94.3672 102.679 97.9015 107.243 102.526 112.553L104.034 111.239ZM93.6415 97.8135C91.4317 94.1305 90.328 90.1273 90.328 85.784H88.328C88.328 90.486 89.5283 94.8455 91.9265 98.8425L93.6415 97.8135ZM90.328 85.784C90.328 81.5457 91.5056 77.781 93.8564 74.4575L92.2236 73.3025C89.625 76.9763 88.328 81.1476 88.328 85.784H90.328ZM93.8629 74.4482C96.227 71.0243 99.4964 68.3177 103.706 66.3368L102.854 64.5272C98.3596 66.6423 94.8023 69.5677 92.2171 73.3118L93.8629 74.4482ZM103.706 66.3368C107.908 64.3595 112.666 63.36 118 63.36V61.36C112.411 61.36 107.356 62.4085 102.854 64.5272L103.706 66.3368ZM118 63.36C124.76 63.36 130.022 64.9446 133.891 68.008L135.133 66.44C130.81 63.018 125.064 61.36 118 61.36V63.36ZM133.899 68.0142C137.827 71.0605 139.784 75.1162 139.784 80.28H141.784C141.784 74.5212 139.559 69.8729 135.125 66.4338L133.899 68.0142ZM139.784 80.28C139.784 83.6954 138.933 86.3566 137.318 88.3557L138.874 89.6123C140.843 87.1741 141.784 84.0326 141.784 80.28H139.784ZM137.318 88.3557C135.72 90.3346 133.661 91.312 131.056 91.312V93.312C134.253 93.312 136.888 92.0707 138.874 89.6123L137.318 88.3557ZM131.056 91.312C128.136 91.312 125.829 90.144 124.051 87.7481L122.445 88.9398C124.593 91.8347 127.491 93.312 131.056 93.312V91.312ZM123.841 89.1491C125.605 87.8494 126.987 86.1379 127.99 84.0394L126.186 83.1765C125.312 85.0034 124.134 86.4493 122.655 87.5389L123.841 89.1491ZM127.99 84.0394C128.992 81.9448 129.496 79.7497 129.496 77.464H127.496C127.496 79.445 127.061 81.3458 126.186 83.1765L127.99 84.0394ZM129.496 77.464C129.496 74.5224 128.615 72.073 126.771 70.2289L125.357 71.6431C126.755 73.0417 127.496 74.9442 127.496 77.464H129.496ZM126.771 70.2289C124.921 68.379 122.425 67.504 119.408 67.504V69.504C122.023 69.504 123.964 70.2503 125.357 71.6431L126.771 70.2289ZM119.408 67.504C115.719 67.504 112.63 68.8558 110.215 71.5485L111.705 72.8835C113.728 70.6269 116.27 69.504 119.408 69.504V67.504ZM110.214 71.55C107.89 74.1535 106.76 77.4765 106.76 81.432H108.76C108.76 77.8782 109.764 75.0572 111.706 72.882L110.214 71.55ZM106.76 81.432C106.76 85.05 107.804 88.4395 109.868 91.5812L111.54 90.4828C109.679 87.6512 108.76 84.6407 108.76 81.432H106.76ZM109.876 91.5923C111.878 94.5519 114.987 98.3473 119.179 102.968L120.661 101.624C116.491 97.0287 113.456 93.3148 111.532 90.4717L109.876 91.5923ZM119.188 102.977C122.59 106.634 125.298 109.767 127.321 112.38L128.903 111.156C126.83 108.478 124.077 105.297 120.652 101.615L119.188 102.977ZM127.334 112.396C129.401 114.959 131.146 117.946 132.564 121.367L134.412 120.601C132.929 117.024 131.09 113.868 128.89 111.14L127.334 112.396ZM132.576 121.394C134.05 124.67 134.792 128.241 134.792 132.12H136.792C136.792 127.978 135.998 124.125 134.4 120.574L132.576 121.394ZM134.792 132.12C134.792 137.381 133.317 142.131 130.362 146.399L132.006 147.537C135.195 142.931 136.792 137.782 136.792 132.12H134.792ZM130.354 146.41C127.476 150.686 123.48 154.073 118.332 156.564L119.204 158.364C124.637 155.735 128.919 152.125 132.014 147.526L130.354 146.41ZM118.327 156.567C113.272 159.052 107.623 160.304 101.36 160.304V162.304C107.897 162.304 113.853 160.996 119.209 158.361L118.327 156.567Z" fill="#A0173B" mask="url(#path-2-outside-1_98_576)"/>
</svg>
