<svg width="52" height="52" viewBox="0 0 52 52" fill="none" xmlns="http://www.w3.org/2000/svg">
<path d="M31.8283 14.5383C32.0292 14.7388 32.1885 14.9769 32.2973 15.239C32.406 15.5011 32.462 15.7821 32.462 16.0658C32.462 16.3496 32.406 16.6306 32.2973 16.8927C32.1885 17.1548 32.0292 17.3929 31.8283 17.5933L23.4217 26L31.8283 34.4067C32.2334 34.8118 32.461 35.3612 32.461 35.9342C32.461 36.5071 32.2334 37.0566 31.8283 37.4617C31.4232 37.8668 30.8738 38.0944 30.3008 38.0944C29.7279 38.0944 29.1784 37.8668 28.7733 37.4617L18.8283 27.5167C18.6275 27.3162 18.4681 27.0781 18.3594 26.816C18.2507 26.5539 18.1947 26.2729 18.1947 25.9892C18.1947 25.7054 18.2507 25.4244 18.3594 25.1623C18.4681 24.9002 18.6275 24.6621 18.8283 24.4617L28.7733 14.5167C29.5967 13.6933 30.9833 13.6933 31.8283 14.5383Z" fill="white"/>
</svg>
