<svg width="18" height="30" viewBox="0 0 18 30" fill="none" xmlns="http://www.w3.org/2000/svg">
<path d="M17.2006 0.789275C17.454 1.03784 17.655 1.33309 17.7922 1.65811C17.9294 1.98314 18 2.33157 18 2.68345C18 3.03534 17.9294 3.38377 17.7922 3.70879C17.655 4.03382 17.454 4.32907 17.2006 4.57763L6.59449 15.0023L17.2006 25.427C17.7117 25.9294 17.9988 26.6108 17.9988 27.3212C17.9988 28.0317 17.7117 28.713 17.2006 29.2154C16.6895 29.7178 15.9963 30 15.2735 30C14.5506 30 13.8574 29.7178 13.3463 29.2154L0.799403 16.8831C0.545995 16.6345 0.34495 16.3393 0.207777 16.0142C0.0706047 15.6892 -3.93458e-07 15.3408 -3.93458e-07 14.9889C-3.93458e-07 14.637 0.0706047 14.2886 0.207777 13.9636C0.34495 13.6385 0.545995 13.3433 0.799403 13.0947L13.3463 0.762406C14.3851 -0.25857 16.1345 -0.258569 17.2006 0.789275Z" fill="white"/>
</svg>
