<svg width="20" height="22" viewBox="0 0 20 22" fill="none" xmlns="http://www.w3.org/2000/svg">
<path d="M15.1717 5.5H18.4605C18.6594 5.50019 18.8512 5.57263 18.9987 5.70327C19.1461 5.83392 19.2388 6.01347 19.2586 6.20714L19.7484 11H18.1329L17.7314 7.07143H15.1717V9.42857C15.1717 9.63696 15.0871 9.83681 14.9365 9.98415C14.7859 10.1315 14.5817 10.2143 14.3687 10.2143C14.1558 10.2143 13.9515 10.1315 13.8009 9.98415C13.6504 9.83681 13.5658 9.63696 13.5658 9.42857V7.07143H7.14221V9.42857C7.14221 9.63696 7.05761 9.83681 6.90703 9.98415C6.75645 10.1315 6.55222 10.2143 6.33926 10.2143C6.12631 10.2143 5.92208 10.1315 5.77149 9.98415C5.62091 9.83681 5.53632 9.63696 5.53632 9.42857V7.07143H2.97492L1.69021 19.6429H10.354V21.2143H0.802153C0.690003 21.2142 0.579121 21.1911 0.47665 21.1465C0.374178 21.1019 0.28239 21.0368 0.207199 20.9554C0.132008 20.8739 0.0750824 20.778 0.0400888 20.6737C0.00509515 20.5695 -0.00719007 20.4592 0.00402491 20.35L1.44933 6.20714C1.46922 6.01347 1.56187 5.83392 1.70932 5.70327C1.85678 5.57263 2.04854 5.50019 2.24745 5.5H5.53632V4.95157C5.53632 2.22671 7.68179 0 10.354 0C13.0262 0 15.1717 2.22671 15.1717 4.95157V5.50157V5.5ZM13.5658 5.5V4.95157C13.5658 3.07529 12.1173 1.57143 10.354 1.57143C8.59072 1.57143 7.14221 3.07529 7.14221 4.95157V5.50157H13.5658V5.5ZM18.6195 17.38L16.7775 15.5791V21.2143C16.7775 21.4227 16.693 21.6225 16.5424 21.7699C16.3918 21.9172 16.1876 22 15.9746 22C15.7617 22 15.5574 21.9172 15.4068 21.7699C15.2563 21.6225 15.1717 21.4227 15.1717 21.2143V15.5791L13.3313 17.38C13.2572 17.455 13.1686 17.5149 13.0707 17.5561C12.9727 17.5973 12.8674 17.6189 12.7607 17.6198C12.6541 17.6207 12.5484 17.6009 12.4497 17.5614C12.351 17.5219 12.2614 17.4635 12.186 17.3897C12.1106 17.316 12.051 17.2282 12.0106 17.1317C11.9702 17.0351 11.9499 16.9317 11.9508 16.8273C11.9518 16.723 11.9739 16.6199 12.016 16.524C12.0581 16.4282 12.1193 16.3415 12.1959 16.269L15.4077 13.1261C15.5583 12.9788 15.7625 12.8961 15.9754 12.8961C16.1883 12.8961 16.3925 12.9788 16.5431 13.1261L19.7549 16.269C19.8316 16.3415 19.8927 16.4282 19.9348 16.524C19.9769 16.6199 19.999 16.723 20 16.8273C20.0009 16.9317 19.9806 17.0351 19.9402 17.1317C19.8998 17.2282 19.8402 17.316 19.7648 17.3897C19.6894 17.4635 19.5998 17.5219 19.5011 17.5614C19.4024 17.6009 19.2967 17.6207 19.1901 17.6198C19.0835 17.6189 18.9781 17.5973 18.8801 17.5561C18.7822 17.5149 18.6936 17.455 18.6195 17.38Z" fill="black"/>
</svg>
